<svg width="600" height="194" viewBox="0 0 600 194" fill="none" xmlns="http://www.w3.org/2000/svg">
<path d="M377.833 61.2883C377.833 69.4383 376.501 77.2072 373.839 84.5977C371.176 91.9856 367.346 98.5066 362.349 104.156C357.349 109.807 351.209 114.29 343.929 117.604C336.648 120.918 328.388 122.576 319.152 122.576C309.917 122.576 301.657 120.918 294.377 117.604C287.096 114.29 280.956 109.807 275.957 104.156C270.96 98.5066 267.129 91.9856 264.467 84.5977C261.805 77.2072 260.473 69.4383 260.473 61.2883C260.473 53.1383 261.805 45.3668 264.467 37.9789C267.129 30.5884 270.96 24.0694 275.957 18.4189C280.956 12.7681 287.096 8.28578 294.377 4.97131C301.657 1.6571 309.917 0 319.152 0C328.388 0 336.648 1.6571 343.929 4.97131C351.209 8.28578 357.349 12.7681 362.349 18.4189C367.346 24.0694 371.176 30.5884 373.839 37.9789C376.501 45.3668 377.833 53.1383 377.833 61.2883ZM27.1228 72.0748H29.0139V119.315H0V101.023C0 85.6462 11.9892 73.0491 27.1228 72.0748ZM43.3578 50.5606V3.25999H72.6978L114.915 77.4246H115.241V72.0748H141.647V119.315H112.632L70.0896 46.2925H69.7636V50.5606H43.3578ZM69.7636 72.0748V119.315H43.3578V72.0748H69.7636ZM495.843 3.25999H540.833C549.635 3.25999 557.675 4.34657 564.955 6.51998C572.236 8.69314 578.486 12.1163 583.7 16.7889C588.917 21.4615 592.937 27.466 595.763 34.8002C598.588 42.1344 600 50.9646 600 61.2883C600 71.6119 598.588 80.4396 595.763 87.7764C592.937 95.1106 588.917 101.112 583.7 105.787C578.486 110.459 572.236 113.883 564.955 116.055C557.675 118.228 549.635 119.315 540.833 119.315H495.843V3.25999ZM185.005 72.0748V119.315H155.991V72.0748H185.005ZM155.991 50.5606V3.25999H219.367C238.358 3.25999 253.775 18.6777 253.775 37.6669C253.775 49.8497 247.431 60.562 237.867 66.6764C236.442 67.5894 234.946 68.3975 233.389 69.093L233.238 69.1621L261.754 119.315H232.775L195.327 50.5606H219.367C226.482 50.5606 232.258 44.7837 232.258 37.6669C232.258 30.5526 226.482 24.7757 219.367 24.7757H185.005V50.5606H155.991ZM414.376 3.25999H444.368L488.215 119.315H457.082L451.214 101.059H408.344L402.477 119.315H371.506L414.376 3.25999ZM348.818 61.2883C348.818 56.7236 348.276 52.2407 347.189 47.8397C346.103 43.4386 344.392 39.5004 342.054 36.0226C339.717 32.5447 336.648 29.7471 332.846 27.6271C329.04 25.5094 324.478 24.4497 319.152 24.4497C314.914 24.4497 310.976 25.156 307.334 26.5684C303.695 27.9825 300.571 30.1537 297.962 33.0894C295.354 36.0226 293.29 39.8252 291.768 44.4999C290.247 49.172 289.487 54.7673 289.487 61.2883C289.487 65.5257 289.948 69.8193 290.873 74.1641C291.797 78.5114 293.397 82.4777 295.681 86.063C297.962 89.6508 301.005 92.5559 304.808 94.7833C308.613 97.0106 313.393 98.1256 319.152 98.1256C324.478 98.1256 329.04 97.0387 332.846 94.8651C336.648 92.6914 339.717 89.8657 342.054 86.3904C344.392 82.9125 346.103 78.9743 347.189 74.5732C348.276 70.1722 348.818 65.743 348.818 61.2883ZM524.858 94.8651H541.485C546.916 94.8651 551.509 93.9956 555.258 92.2567C559.007 90.5178 562.048 88.1293 564.385 85.0861C566.722 82.043 568.405 78.4833 569.438 74.4096C570.471 70.3333 570.988 65.9604 570.988 61.2883C570.988 56.6162 570.471 52.2407 569.438 48.167C568.405 44.0907 566.722 40.5336 564.385 37.4904C562.048 34.4473 558.979 32.0563 555.176 30.3173C551.371 28.5784 546.753 27.7089 541.321 27.7089H524.858V94.8651ZM444.204 79.5446L429.86 31.6215H429.533L415.189 79.5446H444.204ZM0 3.25999H29.0139V50.5606H29.0083C12.998 50.5606 0 37.562 0 21.5516V3.25999ZM141.647 50.5606H115.241V3.25999H141.647V50.5606Z" fill="url(#paint0_linear_223_13)"/>
<path d="M16.7864 144.76H0.691956V138.593H39.9504V144.76H23.8559V192.141H16.7864V144.76Z" fill="#3300FF"/>
<path d="M46.5434 138.593H84.1472V144.76H53.6129V161.306H80.1612V167.473H53.6129V185.974H84.8993V192.141H46.5434V138.593Z" fill="#3300FF"/>
<path d="M134.711 155.139C134.26 153.334 133.483 151.679 132.38 150.175C131.327 148.671 130.049 147.392 128.544 146.339C127.04 145.236 125.361 144.409 123.506 143.858C121.701 143.256 119.795 142.955 117.79 142.955C114.481 142.955 111.598 143.582 109.141 144.835C106.734 146.039 104.729 147.668 103.124 149.724C101.57 151.779 100.417 154.161 99.6647 156.869C98.9126 159.576 98.5366 162.409 98.5366 165.367C98.5366 168.325 98.9126 171.158 99.6647 173.865C100.417 176.573 101.57 178.954 103.124 181.01C104.729 183.066 106.734 184.72 109.141 185.974C111.598 187.177 114.481 187.779 117.79 187.779C120.096 187.779 122.252 187.403 124.258 186.651C126.263 185.899 128.018 184.821 129.522 183.417C131.076 182.013 132.355 180.333 133.358 178.378C134.36 176.423 135.012 174.267 135.313 171.91L142.759 172.813C142.157 175.971 141.054 178.829 139.45 181.386C137.895 183.943 135.99 186.124 133.734 187.929C131.528 189.684 129.046 191.063 126.288 192.066C123.531 193.018 120.698 193.495 117.79 193.495C113.628 193.495 109.868 192.818 106.509 191.464C103.199 190.11 100.367 188.205 98.0101 185.748C95.7037 183.241 93.9238 180.258 92.6703 176.799C91.467 173.339 90.8654 169.528 90.8654 165.367C90.8654 161.205 91.467 157.395 92.6703 153.935C93.9238 150.476 95.7037 147.518 98.0101 145.061C100.367 142.554 103.199 140.624 106.509 139.27C109.868 137.916 113.628 137.239 117.79 137.239C120.648 137.239 123.38 137.59 125.987 138.292C128.595 138.994 130.951 140.047 133.057 141.451C135.163 142.805 136.993 144.509 138.547 146.565C140.101 148.621 141.28 151.027 142.082 153.785L134.711 155.139Z" fill="#3300FF"/>
<path d="M151.056 138.593H158.125V161.306H187.607V138.593H194.676V192.141H187.607V167.473H158.125V192.141H151.056V138.593Z" fill="#3300FF"/>
<path d="M205.331 138.593H212.476L240.829 180.86H240.98V138.593H247.598V192.141H240.529L212.1 149.949H211.95V192.141H205.331V138.593Z" fill="#3300FF"/>
<path d="M256.631 165.367C256.631 161.205 257.232 157.395 258.436 153.935C259.689 150.476 261.469 147.518 263.775 145.061C266.132 142.554 268.965 140.624 272.274 139.27C275.633 137.916 279.394 137.239 283.555 137.239C287.717 137.239 291.452 137.916 294.761 139.27C298.12 140.624 300.953 142.554 303.259 145.061C305.616 147.518 307.396 150.476 308.599 153.935C309.853 157.395 310.479 161.205 310.479 165.367C310.479 169.528 309.853 173.339 308.599 176.799C307.396 180.258 305.616 183.241 303.259 185.748C300.953 188.205 298.12 190.11 294.761 191.464C291.452 192.818 287.717 193.495 283.555 193.495C279.394 193.495 275.633 192.818 272.274 191.464C268.965 190.11 266.132 188.205 263.775 185.748C261.469 183.241 259.689 180.258 258.436 176.799C257.232 173.339 256.631 169.528 256.631 165.367ZM264.302 165.367C264.302 168.325 264.678 171.158 265.43 173.865C266.182 176.573 267.335 178.954 268.89 181.01C270.494 183.066 272.5 184.72 274.906 185.974C277.363 187.177 280.246 187.779 283.555 187.779C286.864 187.779 289.722 187.177 292.129 185.974C294.535 184.72 296.516 183.066 298.07 181.01C299.675 178.954 300.853 176.573 301.605 173.865C302.407 171.158 302.808 168.325 302.808 165.367C302.808 162.409 302.407 159.576 301.605 156.869C300.853 154.161 299.675 151.779 298.07 149.724C296.516 147.668 294.535 146.039 292.129 144.835C289.722 143.582 286.864 142.955 283.555 142.955C280.246 142.955 277.363 143.582 274.906 144.835C272.5 146.039 270.494 147.668 268.89 149.724C267.335 151.779 266.182 154.161 265.43 156.869C264.678 159.576 264.302 162.409 264.302 165.367Z" fill="#3300FF"/>
<path d="M319.538 138.593H326.608V185.974H353.307V192.141H319.538V138.593Z" fill="#3300FF"/>
<path d="M359.674 165.367C359.674 161.205 360.276 157.395 361.479 153.935C362.733 150.476 364.512 147.518 366.819 145.061C369.175 142.554 372.008 140.624 375.317 139.27C378.677 137.916 382.437 137.239 386.598 137.239C390.76 137.239 394.495 137.916 397.804 139.27C401.164 140.624 403.996 142.554 406.303 145.061C408.659 147.518 410.439 150.476 411.643 153.935C412.896 157.395 413.523 161.205 413.523 165.367C413.523 169.528 412.896 173.339 411.643 176.799C410.439 180.258 408.659 183.241 406.303 185.748C403.996 188.205 401.164 190.11 397.804 191.464C394.495 192.818 390.76 193.495 386.598 193.495C382.437 193.495 378.677 192.818 375.317 191.464C372.008 190.11 369.175 188.205 366.819 185.748C364.512 183.241 362.733 180.258 361.479 176.799C360.276 173.339 359.674 169.528 359.674 165.367ZM367.345 165.367C367.345 168.325 367.721 171.158 368.473 173.865C369.225 176.573 370.379 178.954 371.933 181.01C373.537 183.066 375.543 184.72 377.949 185.974C380.406 187.177 383.289 187.779 386.598 187.779C389.908 187.779 392.765 187.177 395.172 185.974C397.579 184.72 399.559 183.066 401.113 181.01C402.718 178.954 403.896 176.573 404.648 173.865C405.45 171.158 405.852 168.325 405.852 165.367C405.852 162.409 405.45 159.576 404.648 156.869C403.896 154.161 402.718 151.779 401.113 149.724C399.559 147.668 397.579 146.039 395.172 144.835C392.765 143.582 389.908 142.955 386.598 142.955C383.289 142.955 380.406 143.582 377.949 144.835C375.543 146.039 373.537 147.668 371.933 149.724C370.379 151.779 369.225 154.161 368.473 156.869C367.721 159.576 367.345 162.409 367.345 165.367Z" fill="#3300FF"/>
<path d="M467.029 184.695H466.879C464.623 188.055 461.815 190.361 458.456 191.614C455.147 192.868 451.612 193.495 447.852 193.495C443.69 193.495 439.93 192.818 436.57 191.464C433.261 190.11 430.428 188.205 428.072 185.748C425.766 183.241 423.986 180.258 422.732 176.799C421.529 173.339 420.927 169.528 420.927 165.367C420.927 161.907 421.504 158.498 422.657 155.139C423.86 151.779 425.615 148.771 427.921 146.114C430.228 143.456 433.036 141.326 436.345 139.721C439.704 138.067 443.54 137.239 447.852 137.239C450.709 137.239 453.442 137.59 456.049 138.292C458.656 138.944 461.038 139.947 463.194 141.301C465.4 142.604 467.33 144.234 468.985 146.189C470.69 148.144 472.018 150.426 472.971 153.033L465.901 154.913C465.3 153.208 464.497 151.654 463.495 150.25C462.492 148.846 461.264 147.643 459.81 146.64C458.355 145.637 456.626 144.86 454.62 144.309C452.665 143.707 450.409 143.406 447.852 143.406C444.843 143.406 442.136 144.008 439.729 145.211C437.373 146.365 435.367 147.919 433.712 149.874C432.058 151.83 430.779 154.111 429.877 156.718C429.025 159.325 428.598 162.058 428.598 164.916C428.598 167.874 428.974 170.707 429.726 173.414C430.479 176.122 431.632 178.503 433.186 180.559C434.79 182.615 436.796 184.269 439.203 185.523C441.659 186.726 444.542 187.328 447.852 187.328C450.659 187.328 453.216 186.977 455.523 186.275C457.879 185.523 459.885 184.445 461.539 183.041C463.244 181.587 464.548 179.782 465.45 177.626C466.403 175.47 466.879 172.963 466.879 170.105H448.378V163.938H473.197V192.592H467.029V184.695Z" fill="#3300FF"/>
<path d="M484.736 138.593H491.805V192.141H484.736V138.593Z" fill="#3300FF"/>
<path d="M503.298 138.593H540.902V144.76H510.367V161.306H536.916V167.473H510.367V185.974H541.654V192.141H503.298V138.593Z" fill="#3300FF"/>
<path d="M582.967 154.311C582.867 152.356 582.441 150.676 581.689 149.273C580.937 147.819 579.934 146.64 578.681 145.738C577.427 144.785 575.973 144.083 574.319 143.632C572.714 143.181 570.984 142.955 569.129 142.955C567.876 142.955 566.547 143.08 565.143 143.331C563.739 143.582 562.436 144.008 561.232 144.61C560.079 145.211 559.101 146.039 558.299 147.092C557.547 148.144 557.171 149.448 557.171 151.002C557.171 152.757 557.647 154.186 558.6 155.289C559.603 156.342 560.881 157.219 562.436 157.921C564.04 158.573 565.87 159.125 567.926 159.576C569.982 159.977 572.062 160.428 574.168 160.93C576.274 161.381 578.355 161.958 580.41 162.659C582.466 163.311 584.271 164.239 585.825 165.442C587.43 166.595 588.708 168.1 589.661 169.955C590.664 171.76 591.165 174.066 591.165 176.874C591.165 179.732 590.563 182.213 589.36 184.319C588.157 186.375 586.577 188.08 584.622 189.433C582.717 190.787 580.536 191.79 578.079 192.442C575.622 193.144 573.115 193.495 570.558 193.495C567.399 193.495 564.416 193.144 561.608 192.442C558.851 191.79 556.419 190.737 554.313 189.283C552.207 187.779 550.478 185.849 549.124 183.492C547.82 181.085 547.068 178.177 546.868 174.768L554.539 174.091C554.739 178.954 556.244 182.464 559.051 184.62C561.859 186.726 565.594 187.779 570.257 187.779C571.962 187.779 573.591 187.578 575.146 187.177C576.75 186.776 578.154 186.149 579.357 185.297C580.611 184.445 581.614 183.342 582.366 181.988C583.118 180.634 583.494 179.005 583.494 177.099C583.494 175.244 582.992 173.765 581.99 172.662C581.037 171.509 579.759 170.581 578.154 169.879C576.6 169.127 574.795 168.526 572.739 168.074C570.683 167.623 568.603 167.172 566.497 166.721C564.391 166.269 562.31 165.743 560.255 165.141C558.199 164.54 556.369 163.712 554.764 162.659C553.21 161.607 551.932 160.278 550.929 158.673C549.976 157.069 549.5 155.013 549.5 152.506C549.5 149.899 550.052 147.643 551.155 145.738C552.308 143.833 553.787 142.253 555.592 141C557.447 139.746 559.503 138.819 561.759 138.217C564.065 137.565 566.372 137.239 568.678 137.239C571.436 137.239 574.043 137.565 576.5 138.217C578.956 138.869 581.137 139.872 583.043 141.225C584.948 142.579 586.527 144.309 587.781 146.415C589.034 148.52 589.861 151.027 590.263 153.935L582.967 154.311Z" fill="#3300FF"/>
<defs>
<linearGradient id="paint0_linear_223_13" x1="0.60249" y1="61.2883" x2="320.152" y2="61.2883" gradientUnits="userSpaceOnUse">
<stop stop-color="#FF00FF"/>
<stop offset="1" stop-color="#3300FF"/>
</linearGradient>
</defs>
</svg>
