<svg width="61" height="48" viewBox="0 0 61 48" fill="none" xmlns="http://www.w3.org/2000/svg">
<path d="M57.4864 0C58.5642 0 59.3427 0.179646 59.8218 0.538938C60.4206 0.898231 60.72 1.37728 60.72 1.9761C60.72 3.05397 59.8816 3.77255 58.2049 4.13183C53.5342 5.08994 49.4622 7.1858 45.9891 10.4194C42.6357 13.5333 40.959 17.9645 40.959 23.7131C40.959 25.2701 41.6776 26.9467 43.1148 28.7432C44.5519 30.5396 46.1687 31.4977 47.9652 31.6175C50.6 31.857 52.636 32.6954 54.0731 34.1325C55.63 35.4499 56.4085 37.1266 56.4085 39.1626C56.4085 41.5579 55.3905 43.534 53.3545 45.0909C51.4383 46.6478 49.1628 47.4263 46.528 47.4263C42.2165 47.4263 38.6237 45.8095 35.7493 42.5758C32.9948 39.2225 31.6175 35.0308 31.6175 30.0007C31.6175 24.3718 33.0547 19.2819 35.929 14.7309C38.8033 10.0601 42.2764 6.46722 46.3484 3.95219C50.5401 1.3174 54.2528 0 57.4864 0ZM25.8689 0C26.9467 0 27.7252 0.179646 28.2043 0.538938C28.8031 0.898231 29.1025 1.37728 29.1025 1.9761C29.1025 3.05397 28.2641 3.77255 26.5874 4.13183C21.9167 5.08994 17.8447 7.1858 14.3716 10.4194C11.0182 13.5333 9.34153 17.9645 9.34153 23.7131C9.34153 25.2701 10.0601 26.9467 11.4973 28.7432C12.9344 30.5396 14.5512 31.4977 16.3477 31.6175C18.9825 31.857 21.0185 32.6954 22.4556 34.1325C24.0125 35.4499 24.791 37.1266 24.791 39.1626C24.791 41.5579 23.773 43.534 21.737 45.0909C19.8208 46.6478 17.5453 47.4263 14.9105 47.4263C10.599 47.4263 7.00615 45.8095 4.13183 42.5758C1.37728 39.2225 0 35.0308 0 30.0007C0 24.3718 1.43716 19.2819 4.31148 14.7309C7.1858 10.0601 10.6589 6.46722 14.7309 3.95219C18.9226 1.3174 22.6353 0 25.8689 0Z" fill="white"/>
</svg>
