<svg width="19" height="15" viewBox="0 0 19 15" fill="none" xmlns="http://www.w3.org/2000/svg">
<path fill-rule="evenodd" clip-rule="evenodd" d="M9.18371 2.71451C9.16556 2.75844 9.14767 2.8012 9.13068 2.84182C9.11223 2.88592 9.09483 2.92751 9.07928 2.96538C9.01337 3.12587 8.96434 3.25678 8.93166 3.37892C8.88785 3.54264 8.8274 3.71983 8.77892 3.86198C8.76275 3.90936 8.74792 3.95285 8.73547 3.99064C8.67697 4.16826 8.64355 4.29506 8.63139 4.40451C8.63137 4.40466 8.63141 4.40436 8.63139 4.40451C8.74489 4.14488 8.86084 3.88549 8.98086 3.6283C9.00828 3.56954 9.05013 3.42166 9.07135 3.2901C9.10321 3.0926 9.14278 2.8993 9.18371 2.71451ZM7.50508 7.27163C7.49685 7.28624 7.48855 7.30078 7.48016 7.31524C7.35717 7.52729 7.26603 7.78118 7.16372 8.10387C7.13495 8.19459 7.10823 8.28327 7.08366 8.37085C7.0926 8.35503 7.10139 8.33951 7.11004 8.32423C7.17411 8.21107 7.23025 8.11188 7.28143 8.01416C7.28581 7.98239 7.29317 7.93389 7.30483 7.88188C7.32106 7.80948 7.34854 7.71508 7.39946 7.61325C7.43204 7.54809 7.45615 7.46563 7.502 7.28387C7.50301 7.27986 7.50404 7.27578 7.50508 7.27163ZM6.31899 10.5436C6.26738 10.6061 6.21707 10.6646 6.17159 10.7173C6.16347 10.7267 6.15552 10.7359 6.14775 10.7449C6.07781 10.8259 6.0212 10.8914 5.96939 10.9562C5.82624 11.1351 5.70236 11.3439 5.54573 11.6083C5.5412 11.626 5.53779 11.6421 5.53197 11.6696C5.52813 11.6877 5.52325 11.7108 5.51631 11.7425C5.5155 11.7462 5.51464 11.7502 5.51373 11.7544C5.48802 11.8731 5.41913 12.1913 5.17581 12.4489C5.16337 12.4621 5.1503 12.4779 5.1122 12.524L5.10199 12.5363C5.06518 12.5808 5.004 12.6546 4.93058 12.7268C4.78257 12.8722 4.49645 13.0988 4.07067 13.0988C4.04782 13.0988 4.04539 13.0991 4.04108 13.0995C4.03529 13.1 4.02612 13.1009 3.95981 13.102C3.90361 13.103 3.78882 13.1036 3.66142 13.0774C3.53247 13.0508 3.31624 12.9819 3.13527 12.785C2.94207 12.5747 2.88474 12.3244 2.88474 12.1238C2.88474 11.9139 2.88488 11.6134 2.92612 11.311C2.93257 11.2637 2.94025 11.2144 2.94953 11.1636C2.7503 11.2531 2.53848 11.2788 2.40744 11.2862C2.31347 11.2915 2.20714 11.2904 2.09847 11.2763C2.00178 11.2637 1.84385 11.2338 1.6849 11.1455C1.25142 10.9046 1.18498 10.4465 1.16867 10.3185C1.14379 10.1233 1.15512 9.92137 1.16873 9.77075C1.18206 9.62313 1.20284 9.47478 1.21846 9.36321C1.21961 9.35503 1.22073 9.34704 1.22181 9.33927C1.23397 9.25218 1.23963 9.20556 1.24222 9.18421C1.244 9.16953 1.24433 9.1668 1.24433 9.17108C1.24433 8.99408 1.26177 8.80817 1.29204 8.62085C1.11352 8.70741 0.871647 8.74864 0.618159 8.65139C0.376218 8.55857 0.248541 8.38486 0.196225 8.30178C0.0926369 8.13728 0.0604381 7.96732 0.0485819 7.89779C0.0323883 7.80282 0.025744 7.70708 0.025744 7.62181C0.025744 7.62197 0.0257433 7.61981 0.0255521 7.61477C0.0253629 7.60979 0.0250284 7.60305 0.0244673 7.59412C0.0232944 7.57545 0.0215261 7.55321 0.0189876 7.52319C0.0184477 7.51681 0.017863 7.50998 0.0172452 7.50277C0.0126643 7.44931 0.00626549 7.37464 0.00284661 7.3003C-0.0010414 7.21577 -0.00275101 7.1036 0.0107608 6.98426C0.0236657 6.87028 0.0555206 6.69982 0.151234 6.52753C0.242438 6.36337 0.316947 6.16939 0.389688 5.93298C0.433083 5.79195 0.492641 5.66731 0.536258 5.58067C0.56797 5.51768 0.585171 5.48529 0.599236 5.45881C0.613412 5.43212 0.624402 5.41143 0.643849 5.37145C0.749765 5.15373 0.819066 4.93274 0.894291 4.63627C1.00444 4.20214 1.44567 3.9395 1.87981 4.04965C1.92432 4.06095 1.96703 4.07572 2.00772 4.09361C2.04722 4.00079 2.08784 3.90644 2.12993 3.81024C2.14969 3.76507 2.17032 3.71596 2.1923 3.66367C2.32724 3.34255 2.51265 2.90133 2.85524 2.51592C2.94737 2.41228 3.07422 2.29935 3.22157 2.20764C3.349 2.12832 3.60694 1.99173 3.93081 2.01078C4.36184 2.03614 4.56744 2.35109 4.62567 2.4595C4.692 2.58297 4.71638 2.69913 4.72638 2.75302C4.72839 2.76383 4.73024 2.77464 4.73195 2.78544C4.77164 2.63118 4.82433 2.49232 4.8762 2.37253C4.9441 2.21571 5.03748 2.03685 5.10717 1.90337C5.13341 1.8531 5.15629 1.80927 5.17319 1.77548C5.17536 1.77114 5.17757 1.76672 5.17982 1.76222C5.25432 1.61303 5.37305 1.37531 5.57209 1.15811C5.57332 1.15627 5.57473 1.15413 5.57633 1.15167C5.58392 1.14001 5.59244 1.12643 5.60549 1.1055L5.60797 1.10153C5.61943 1.08315 5.63461 1.05879 5.65045 1.03423C5.68297 0.983805 5.73523 0.905545 5.80351 0.827505C5.87021 0.751283 5.98184 0.640408 6.14516 0.558746C6.31245 0.475103 6.54255 0.420663 6.74049 0.410807C6.83545 0.406078 7.03034 0.404443 7.23442 0.490995C7.34674 0.53863 7.4925 0.626208 7.61025 0.783786C7.73458 0.950163 7.78751 1.14118 7.78751 1.32056V1.83346C7.84498 1.68519 7.9111 1.55323 7.96473 1.44808C7.978 1.42207 7.99034 1.39802 8.00192 1.37546C8.0464 1.28879 8.07956 1.22418 8.1102 1.15523C8.23131 0.88274 8.41615 0.731941 8.52113 0.653882C8.53809 0.641269 8.55744 0.62736 8.56877 0.619214C8.57142 0.617314 8.57362 0.615728 8.57526 0.614545C8.5754 0.614446 8.57513 0.614642 8.57526 0.614545C8.81546 0.334912 9.19166 0.127495 9.54541 0.0430656C9.90617 -0.043037 10.623 -0.0634508 11.0083 0.61095C11.069 0.717101 11.1077 0.824392 11.1311 0.928008C11.4255 0.58751 11.8531 0.322108 12.4341 0.322108C12.8324 0.322108 13.1023 0.55752 13.2384 0.776649C13.3535 0.961988 13.3929 1.15653 13.4104 1.27748C13.4474 1.53315 13.4324 1.82224 13.4113 2.05016C13.3888 2.29266 13.3524 2.53256 13.3217 2.71416C13.3061 2.80602 13.2916 2.88512 13.2804 2.9445L13.2666 3.017C13.2664 3.01809 13.2662 3.01914 13.266 3.02014C13.3136 2.94249 13.3592 2.8765 13.3921 2.829C13.3975 2.82111 13.4027 2.81372 13.4074 2.80688C13.4595 2.7311 13.4813 2.6957 13.4979 2.66069C13.4977 2.66108 13.4976 2.66122 13.4979 2.66069C13.4989 2.65802 13.5052 2.64257 13.5172 2.6047C13.5282 2.57009 13.5334 2.55225 13.5398 2.5305C13.5462 2.50902 13.5536 2.48371 13.5688 2.43464L13.5696 2.43219C13.6045 2.3194 13.6823 2.06841 13.8527 1.85547C14.0254 1.63963 14.2522 1.56366 14.3302 1.53929C14.4414 1.50459 14.5499 1.48845 14.6385 1.48122C14.7294 1.47381 14.8275 1.47352 14.9243 1.48336C14.9991 1.49096 15.1605 1.51211 15.3237 1.59849C15.6674 1.78048 15.8378 2.07585 15.9031 2.35061C15.9475 2.53721 15.9441 2.74044 15.9429 2.81159C15.9428 2.81984 15.9427 2.82631 15.9427 2.83077C15.9427 3.27408 15.8893 3.60837 15.7869 4.00657C15.6705 4.45949 15.6046 4.90343 15.5323 5.3903C15.512 5.52699 15.4913 5.66706 15.4687 5.81165C15.5546 5.61516 15.6221 5.44628 15.669 5.26388C15.6763 5.23538 15.6798 5.20877 15.6879 5.14782C15.6924 5.1134 15.6984 5.06804 15.7073 5.00521C15.724 4.88744 15.7584 4.64877 15.8697 4.42617C15.9265 4.31246 15.9949 4.20068 16.0415 4.12454C16.0486 4.1129 16.0552 4.1021 16.0611 4.09225C16.1165 4.001 16.1407 3.95605 16.1537 3.92492C16.2713 3.64277 16.4936 3.50109 16.6069 3.44156C16.74 3.37164 16.8785 3.33292 17.0023 3.31493C17.1233 3.29734 17.2803 3.29228 17.4468 3.33254C17.5993 3.36943 17.8923 3.48013 18.0617 3.80011C18.1887 4.03996 18.2353 4.29207 18.2572 4.47396C18.2787 4.65262 18.2827 4.8299 18.2855 4.9501L18.2859 4.96788C18.3005 5.59601 18.2053 6.19739 18.1213 6.72159L18.1172 6.74727C18.0314 7.28275 17.958 7.74031 17.958 8.19986C17.958 8.52158 17.8752 8.81502 17.7984 9.03721C17.7572 9.15641 17.6885 9.32961 17.6372 9.45898C17.6117 9.52337 17.5904 9.5769 17.579 9.60752C17.5791 9.60739 17.5791 9.60729 17.579 9.60752C17.5784 9.60955 17.5731 9.62612 17.5666 9.66133C17.5597 9.69865 17.5535 9.74547 17.5486 9.80097C17.5387 9.91312 17.5362 10.0341 17.5362 10.1423C17.5362 10.2935 17.5032 10.4952 17.4719 10.6414C17.4542 10.7239 17.4308 10.8182 17.401 10.9087C17.3847 10.9584 17.3433 11.0835 17.2614 11.2095C17.2597 11.2211 17.258 11.2354 17.2566 11.2526C17.2528 11.2976 17.2514 11.3507 17.2517 11.4137C17.2519 11.4447 17.2524 11.4759 17.2531 11.5091C17.2532 11.5159 17.2533 11.523 17.2535 11.5304C17.254 11.5563 17.2546 11.5849 17.2549 11.6109C17.2607 12.0587 16.9023 12.4264 16.4544 12.4322C16.0066 12.4379 15.6389 12.0795 15.6331 11.6317C15.633 11.6184 15.6326 11.6016 15.6321 11.5819C15.6298 11.4777 15.6257 11.2921 15.6403 11.1175C15.6539 10.9542 15.6916 10.6477 15.8694 10.3708C15.8743 10.3526 15.88 10.3293 15.886 10.3014C15.8959 10.2551 15.904 10.2081 15.9094 10.1698C15.912 10.1512 15.9135 10.1375 15.9143 10.1291C15.9145 10.0035 15.9174 9.83366 15.933 9.65811C15.9472 9.49711 15.9758 9.28061 16.0468 9.07552C16.0386 9.09012 16.0308 9.10414 16.0233 9.11747C15.9669 9.21868 15.924 9.29934 15.89 9.37523C15.8132 9.54654 15.7692 9.71913 15.7063 9.96588C15.6919 10.0224 15.6765 10.0829 15.6595 10.1482C15.5771 10.4643 15.4585 10.8746 15.1972 11.2665C15.0518 11.4847 14.9631 11.7412 14.8643 12.0985C14.8515 12.1448 14.8383 12.1939 14.8245 12.2455C14.7414 12.5547 14.6354 12.949 14.4594 13.3158C14.4572 13.3202 14.4541 13.3269 14.4501 13.3355C14.4227 13.3946 14.3537 13.5433 14.2712 13.6708C14.1936 13.7907 13.9701 14.1136 13.55 14.207C13.3698 14.247 13.1448 14.2732 12.9099 14.2205C12.6457 14.1612 12.4175 14.0122 12.2607 13.7887C12.1222 13.5912 12.0726 13.3823 12.0505 13.2396C12.0276 13.0923 12.0242 12.9441 12.0242 12.8242C12.0242 12.6032 12.043 12.3872 12.0733 12.1787C12.072 12.1823 12.0707 12.1862 12.0692 12.1904C12.0569 12.2254 12.0346 12.2886 12.0038 12.3556C11.9729 12.423 11.9223 12.5196 11.8412 12.617C11.8016 12.6644 11.7677 12.7159 11.7043 12.8121C11.693 12.8293 11.6807 12.848 11.6672 12.8683C11.5924 12.9814 11.4784 13.151 11.3229 13.3066C11.3114 13.318 11.3009 13.3285 11.291 13.3384C11.2649 13.3644 11.2429 13.3862 11.219 13.411C11.1901 13.4409 11.1681 13.4652 11.1512 13.4857L11.1506 13.4905C11.1448 13.5454 11.1365 13.6236 11.1256 13.7022C11.1148 13.7801 11.0973 13.8902 11.0672 13.9971C11.0524 14.0494 11.027 14.1292 10.9835 14.2141C10.9504 14.2788 10.8505 14.4616 10.6337 14.5855C10.4402 14.6961 10.2151 14.7379 10.0566 14.749C9.96514 14.7553 9.84626 14.7553 9.71845 14.7308C9.6049 14.709 9.38963 14.6501 9.2048 14.4653C8.92738 14.1878 8.88621 13.8507 8.878 13.6841C8.87358 13.5944 8.87725 13.5122 8.87972 13.462C8.88055 13.4449 8.88124 13.4313 8.88181 13.4202C8.88337 13.3895 8.88395 13.378 8.88395 13.3658C8.88395 12.9426 8.9161 12.5676 9.03291 12.1638C8.8432 12.4261 8.63087 12.6561 8.47644 12.8233L8.46294 12.8379C8.4091 12.8963 8.36124 12.984 8.287 13.1973C8.27837 13.2221 8.2688 13.2508 8.25819 13.2825C8.1958 13.4695 8.09729 13.7646 7.93932 14.0231C7.72735 14.3699 7.37812 14.4698 7.20997 14.5012C7.00998 14.5385 6.80885 14.5294 6.63743 14.4986C6.46933 14.4684 6.26526 14.4058 6.07994 14.2839C5.9094 14.1717 5.60313 13.8998 5.60313 13.4387C5.60313 13.1797 5.63659 12.9535 5.6696 12.7651C5.68106 12.6997 5.69161 12.6428 5.7013 12.5905C5.72216 12.4779 5.73908 12.3866 5.7526 12.2784C5.80957 11.8226 5.9695 11.4267 6.09412 11.1252C6.10225 11.1055 6.11023 11.0862 6.11805 11.0673C6.20432 10.8589 6.27163 10.6962 6.31899 10.5436ZM10.7018 6.70895C10.7502 6.53608 10.7925 6.36697 10.8373 6.18799C10.8816 6.01139 10.9282 5.82519 10.9854 5.6163C11.0401 5.41641 11.101 5.22433 11.1562 5.05005C11.1643 5.02471 11.1722 4.99973 11.1799 4.97517C11.243 4.77571 11.2985 4.59473 11.3447 4.40737C11.4049 4.16303 11.4553 3.92364 11.502 3.6795C11.476 3.72318 11.4444 3.77113 11.4075 3.81787C11.4026 3.83597 11.397 3.85957 11.3875 3.89984L11.3867 3.90312C11.3762 3.94767 11.3601 4.01588 11.3388 4.08711C11.2987 4.22058 11.2718 4.34982 11.2373 4.51574C11.2311 4.54546 11.2247 4.57636 11.2179 4.60867C11.1764 4.8062 11.122 5.051 11.0247 5.3039C10.8599 5.73244 10.7747 6.19011 10.7018 6.70895ZM8.13916 9.93845C8.11914 10.0316 8.10145 10.1175 8.085 10.1974C8.02856 10.4715 7.98668 10.6749 7.915 10.8591C7.93142 10.7966 7.94633 10.733 7.95923 10.6685C8.01158 10.4068 8.06875 10.1599 8.13916 9.93845ZM2.03444 9.89913C2.03397 9.90013 2.03372 9.9006 2.03371 9.90059L2.03444 9.89913Z" fill="#444444"/>
</svg>
