<svg width="290" height="79" viewBox="0 0 290 79" fill="none" xmlns="http://www.w3.org/2000/svg">
<path d="M24.1975 74.8492C13.9167 74.8492 4.88965 66.3237 2.63289 52.1562L0 52.2816L1.62988 77.4821H3.51052C4.13739 75.2253 5.1404 73.4701 6.77028 73.4701C9.65392 73.4701 14.6689 78.4851 24.4482 78.4851C38.4903 78.4851 49.6487 69.0819 49.6487 56.0429C49.6487 46.0128 42.6277 40.7471 33.6006 35.9828L23.0691 30.3409C16.4242 26.8304 10.9077 23.8214 10.9077 16.0481C10.9077 9.27779 16.4242 3.6359 24.5736 3.6359C35.1051 3.6359 42.6277 11.9107 44.0068 23.4452L46.2636 23.3199L45.2606 1.12838H43.6307C42.8784 3.13439 42.2516 4.1374 40.4963 4.1374C37.9888 4.1374 32.9738 0 24.3229 0C11.4092 0 1.50451 8.90167 1.50451 20.5616C1.50451 30.0901 7.1464 34.9798 15.6719 39.6187L27.9587 46.1382C35.8574 50.401 39.9948 53.7861 39.9948 60.8071C39.9948 70.5864 32.723 74.8492 24.1975 74.8492Z" fill="#F54B00"/>
<path d="M81.4804 25.8274C88.5014 25.8274 91.7612 32.2215 92.1373 41.1232H67.9398C69.319 31.2185 74.5847 25.8274 81.4804 25.8274ZM103.296 67.3267L101.917 65.9475C98.5315 70.2103 94.2687 72.2163 88.7522 72.2163C76.0892 72.2163 67.5637 61.0579 67.5637 46.389C67.5637 45.6367 67.5637 44.8844 67.5637 44.1322H102.418C102.418 33.726 96.0239 22.5676 81.6058 22.5676C69.319 22.5676 57.1575 34.6037 57.1575 51.0278C57.1575 67.2013 69.1936 78.4851 83.6118 78.4851C91.1343 78.4851 98.5315 74.7238 103.296 67.3267Z" fill="#F54B00"/>
<path d="M133.677 74.5984C127.784 74.5984 126.154 74.0969 126.154 67.9535V36.735C128.035 32.5976 132.298 28.9618 137.438 28.9618C144.71 28.9618 148.596 33.8514 148.596 43.0038V67.9535C148.596 74.0969 147.092 74.5984 141.199 74.5984V77.2313H167.027V74.5984C161.134 74.5984 159.63 74.0969 159.63 67.9535V40.8724C159.63 30.8424 154.489 22.5676 143.331 22.5676C134.805 22.5676 128.536 29.3379 126.154 34.2275V23.8214H107.724V26.4542C113.617 26.4542 115.121 26.8304 115.121 32.9738V67.9535C115.121 74.0969 113.617 74.5984 107.724 74.5984V77.2313H133.677V74.5984Z" fill="#F54B00"/>
<path d="M169.415 26.0781V27.708H176.561L176.185 64.3177C176.185 72.7178 182.454 78.4851 190.352 78.4851C197.499 78.4851 202.765 74.9746 206.651 68.7058L204.896 67.3267C202.263 70.9626 199.63 72.7178 195.744 72.7178C189.851 72.7178 187.218 68.2043 187.218 62.0609V27.708H204.018L204.771 23.5706C201.135 23.9467 191.23 24.0721 187.218 24.0721V9.77929H186.215C182.203 15.5466 176.06 21.5646 169.415 26.0781Z" fill="#F54B00"/>
<path d="M215.642 32.9738V67.9535C215.642 74.0969 214.137 74.5984 208.245 74.5984V77.2313H234.198V74.5984C228.305 74.5984 226.675 74.0969 226.675 67.9535V23.8214H208.245V26.4542C214.137 26.4542 215.642 26.8304 215.642 32.9738Z" fill="#F54B00"/>
<path d="M267.589 42.1262V46.5143L254.675 51.1532C245.272 54.7891 238.752 58.6758 238.752 66.449C238.752 74.0969 245.021 78.4851 251.917 78.4851C258.812 78.4851 264.454 74.0969 267.714 69.8342C269.093 75.2253 273.356 78.4851 278.622 78.4851C283.261 78.4851 286.896 75.6014 289.153 72.0909L287.649 70.4611C285.893 72.4671 284.765 73.3447 282.759 73.3447C280.628 73.3447 278.622 71.4641 278.622 67.5774V41.1232C278.622 29.4633 271.601 22.5676 260.818 22.5676C250.788 22.5676 242.764 29.3379 239.505 38.6157L242.012 39.6187C245.021 32.723 249.911 28.5856 255.803 28.5856C264.203 28.5856 267.589 34.729 267.589 42.1262ZM267.589 49.7741V67.7028C264.83 70.8372 261.32 72.8432 257.809 72.8432C252.544 72.8432 249.033 69.3327 249.033 63.9415C249.033 58.1742 252.794 55.2906 257.559 53.5354L267.589 49.7741Z" fill="#F54B00"/>
<path fill-rule="evenodd" clip-rule="evenodd" d="M217.475 2.71451C217.457 2.75844 217.439 2.8012 217.422 2.84182C217.404 2.88592 217.386 2.92751 217.371 2.96538C217.305 3.12587 217.256 3.25678 217.223 3.37892C217.179 3.54264 217.119 3.71983 217.07 3.86198C217.054 3.90936 217.039 3.95285 217.027 3.99064C216.968 4.16826 216.935 4.29506 216.923 4.40451C216.923 4.40466 216.923 4.40436 216.923 4.40451C217.036 4.14488 217.152 3.88549 217.272 3.6283C217.3 3.56954 217.342 3.42166 217.363 3.2901C217.395 3.0926 217.434 2.8993 217.475 2.71451ZM215.797 7.27163C215.788 7.28624 215.78 7.30078 215.772 7.31524C215.649 7.52729 215.558 7.78118 215.455 8.10387C215.426 8.19459 215.4 8.28327 215.375 8.37085C215.384 8.35503 215.393 8.33951 215.402 8.32423C215.466 8.21107 215.522 8.11188 215.573 8.01416C215.577 7.98239 215.585 7.93389 215.596 7.88188C215.613 7.80948 215.64 7.71508 215.691 7.61325C215.724 7.54809 215.748 7.46563 215.793 7.28387C215.794 7.27986 215.796 7.27578 215.797 7.27163ZM214.61 10.5436C214.559 10.6061 214.509 10.6646 214.463 10.7173C214.455 10.7267 214.447 10.7359 214.439 10.7449C214.369 10.8259 214.313 10.8914 214.261 10.9562C214.118 11.1351 213.994 11.3439 213.837 11.6083C213.833 11.626 213.829 11.6421 213.823 11.6696C213.82 11.6877 213.815 11.7108 213.808 11.7425C213.807 11.7462 213.806 11.7502 213.805 11.7544C213.779 11.8731 213.711 12.1913 213.467 12.4489C213.455 12.4621 213.442 12.4779 213.404 12.524L213.393 12.5363C213.357 12.5808 213.295 12.6546 213.222 12.7268C213.074 12.8722 212.788 13.0988 212.362 13.0988C212.339 13.0988 212.337 13.0991 212.333 13.0995C212.327 13.1 212.318 13.1009 212.251 13.102C212.195 13.103 212.08 13.1036 211.953 13.0774C211.824 13.0508 211.608 12.9819 211.427 12.785C211.234 12.5747 211.176 12.3244 211.176 12.1238C211.176 11.9139 211.176 11.6134 211.218 11.311C211.224 11.2637 211.232 11.2144 211.241 11.1636C211.042 11.2531 210.83 11.2788 210.699 11.2862C210.605 11.2915 210.499 11.2904 210.39 11.2763C210.293 11.2637 210.135 11.2338 209.976 11.1455C209.543 10.9046 209.476 10.4465 209.46 10.3185C209.435 10.1233 209.447 9.92137 209.46 9.77075C209.474 9.62313 209.494 9.47478 209.51 9.36321C209.511 9.35503 209.512 9.34704 209.513 9.33927C209.525 9.25218 209.531 9.20556 209.534 9.18421C209.535 9.16953 209.536 9.1668 209.536 9.17108C209.536 8.99408 209.553 8.80817 209.584 8.62085C209.405 8.70741 209.163 8.74864 208.91 8.65139C208.668 8.55857 208.54 8.38486 208.488 8.30178C208.384 8.13728 208.352 7.96732 208.34 7.89779C208.324 7.80282 208.317 7.70708 208.317 7.62181C208.317 7.62197 208.317 7.61981 208.317 7.61477C208.317 7.60979 208.317 7.60305 208.316 7.59412C208.315 7.57545 208.313 7.55321 208.31 7.52319C208.31 7.51681 208.309 7.50998 208.309 7.50277C208.304 7.44931 208.298 7.37464 208.294 7.3003C208.29 7.21577 208.289 7.1036 208.302 6.98426C208.315 6.87028 208.347 6.69982 208.443 6.52753C208.534 6.36337 208.608 6.16939 208.681 5.93298C208.725 5.79195 208.784 5.66731 208.828 5.58067C208.859 5.51768 208.877 5.48529 208.891 5.45881C208.905 5.43212 208.916 5.41143 208.935 5.37145C209.041 5.15373 209.111 4.93274 209.186 4.63627C209.296 4.20214 209.737 3.9395 210.171 4.04965C210.216 4.06095 210.259 4.07572 210.299 4.09361C210.339 4.00079 210.379 3.90644 210.421 3.81024C210.441 3.76507 210.462 3.71596 210.484 3.66367C210.619 3.34255 210.804 2.90133 211.147 2.51592C211.239 2.41228 211.366 2.29935 211.513 2.20764C211.64 2.12832 211.898 1.99173 212.222 2.01078C212.653 2.03614 212.859 2.35109 212.917 2.4595C212.983 2.58297 213.008 2.69913 213.018 2.75302C213.02 2.76383 213.022 2.77464 213.023 2.78544C213.063 2.63118 213.116 2.49232 213.168 2.37253C213.236 2.21571 213.329 2.03685 213.399 1.90337C213.425 1.8531 213.448 1.80927 213.465 1.77548C213.467 1.77114 213.469 1.76672 213.471 1.76222C213.546 1.61303 213.665 1.37531 213.864 1.15811C213.865 1.15627 213.866 1.15413 213.868 1.15167C213.875 1.14001 213.884 1.12643 213.897 1.1055L213.899 1.10153C213.911 1.08315 213.926 1.05879 213.942 1.03423C213.974 0.983805 214.027 0.905545 214.095 0.827505C214.162 0.751283 214.273 0.640408 214.437 0.558746C214.604 0.475103 214.834 0.420663 215.032 0.410807C215.127 0.406078 215.322 0.404443 215.526 0.490995C215.638 0.53863 215.784 0.626208 215.902 0.783786C216.026 0.950163 216.079 1.14118 216.079 1.32056V1.83346C216.136 1.68519 216.203 1.55323 216.256 1.44808C216.269 1.42207 216.282 1.39802 216.293 1.37546C216.338 1.28879 216.371 1.22418 216.402 1.15523C216.523 0.88274 216.708 0.731941 216.813 0.653882C216.83 0.641269 216.849 0.62736 216.86 0.619214C216.863 0.617314 216.865 0.615728 216.867 0.614545C216.867 0.614446 216.867 0.614642 216.867 0.614545C217.107 0.334912 217.483 0.127495 217.837 0.0430656C218.198 -0.043037 218.914 -0.0634508 219.3 0.61095C219.36 0.717101 219.399 0.824392 219.423 0.928008C219.717 0.58751 220.145 0.322108 220.726 0.322108C221.124 0.322108 221.394 0.55752 221.53 0.776649C221.645 0.961988 221.684 1.15653 221.702 1.27748C221.739 1.53315 221.724 1.82224 221.703 2.05016C221.68 2.29266 221.644 2.53256 221.613 2.71416C221.598 2.80602 221.583 2.88512 221.572 2.9445L221.558 3.017C221.558 3.01809 221.558 3.01914 221.557 3.02014C221.605 2.94249 221.651 2.8765 221.684 2.829C221.689 2.82111 221.694 2.81372 221.699 2.80688C221.751 2.7311 221.773 2.6957 221.789 2.66069C221.789 2.66108 221.789 2.66122 221.789 2.66069C221.79 2.65802 221.797 2.64257 221.809 2.6047C221.82 2.57009 221.825 2.55225 221.831 2.5305C221.838 2.50902 221.845 2.48371 221.86 2.43464L221.861 2.43219C221.896 2.3194 221.974 2.06841 222.144 1.85547C222.317 1.63963 222.544 1.56366 222.622 1.53929C222.733 1.50459 222.841 1.48845 222.93 1.48122C223.021 1.47381 223.119 1.47352 223.216 1.48336C223.291 1.49096 223.452 1.51211 223.615 1.59849C223.959 1.78048 224.129 2.07585 224.195 2.35061C224.239 2.53721 224.236 2.74044 224.234 2.81159C224.234 2.81984 224.234 2.82631 224.234 2.83077C224.234 3.27408 224.181 3.60837 224.078 4.00657C223.962 4.45949 223.896 4.90343 223.824 5.3903C223.804 5.52699 223.783 5.66706 223.76 5.81165C223.846 5.61516 223.914 5.44628 223.96 5.26388C223.968 5.23538 223.971 5.20877 223.979 5.14782C223.984 5.1134 223.99 5.06804 223.999 5.00521C224.015 4.88744 224.05 4.64877 224.161 4.42617C224.218 4.31246 224.286 4.20068 224.333 4.12454C224.34 4.1129 224.347 4.1021 224.353 4.09225C224.408 4.001 224.432 3.95605 224.445 3.92492C224.563 3.64277 224.785 3.50109 224.898 3.44156C225.031 3.37164 225.17 3.33292 225.294 3.31493C225.415 3.29734 225.572 3.29228 225.738 3.33254C225.891 3.36943 226.184 3.48013 226.353 3.80011C226.48 4.03996 226.527 4.29207 226.549 4.47396C226.57 4.65262 226.574 4.8299 226.577 4.9501L226.577 4.96788C226.592 5.59601 226.497 6.19739 226.413 6.72159L226.409 6.74727C226.323 7.28275 226.25 7.74031 226.25 8.19986C226.25 8.52158 226.167 8.81502 226.09 9.03721C226.049 9.15641 225.98 9.32961 225.929 9.45898C225.903 9.52337 225.882 9.5769 225.871 9.60752C225.871 9.60739 225.871 9.60729 225.871 9.60752C225.87 9.60955 225.865 9.62612 225.858 9.66133C225.851 9.69865 225.845 9.74547 225.84 9.80097C225.83 9.91312 225.828 10.0341 225.828 10.1423C225.828 10.2935 225.795 10.4952 225.763 10.6414C225.746 10.7239 225.722 10.8182 225.693 10.9087C225.676 10.9584 225.635 11.0835 225.553 11.2095C225.551 11.2211 225.55 11.2354 225.548 11.2526C225.544 11.2976 225.543 11.3507 225.543 11.4137C225.543 11.4447 225.544 11.4759 225.545 11.5091C225.545 11.5159 225.545 11.523 225.545 11.5304C225.545 11.5563 225.546 11.5849 225.546 11.6109C225.552 12.0587 225.194 12.4264 224.746 12.4322C224.298 12.4379 223.93 12.0795 223.925 11.6317C223.924 11.6184 223.924 11.6016 223.924 11.5819C223.921 11.4777 223.917 11.2921 223.932 11.1175C223.945 10.9542 223.983 10.6477 224.161 10.3708C224.166 10.3526 224.171 10.3293 224.177 10.3014C224.187 10.2551 224.196 10.2081 224.201 10.1698C224.203 10.1512 224.205 10.1375 224.206 10.1291C224.206 10.0035 224.209 9.83366 224.224 9.65811C224.239 9.49711 224.267 9.28061 224.338 9.07552C224.33 9.09012 224.322 9.10414 224.315 9.11747C224.258 9.21868 224.215 9.29934 224.181 9.37523C224.105 9.54654 224.061 9.71913 223.998 9.96588C223.983 10.0224 223.968 10.0829 223.951 10.1482C223.869 10.4643 223.75 10.8746 223.489 11.2665C223.343 11.4847 223.255 11.7412 223.156 12.0985C223.143 12.1448 223.13 12.1939 223.116 12.2455C223.033 12.5547 222.927 12.949 222.751 13.3158C222.749 13.3202 222.746 13.3269 222.742 13.3355C222.714 13.3946 222.645 13.5433 222.563 13.6708C222.485 13.7907 222.262 14.1136 221.842 14.207C221.661 14.247 221.436 14.2732 221.201 14.2205C220.937 14.1612 220.709 14.0122 220.552 13.7887C220.414 13.5912 220.364 13.3823 220.342 13.2396C220.319 13.0923 220.316 12.9441 220.316 12.8242C220.316 12.6032 220.334 12.3872 220.365 12.1787C220.364 12.1823 220.362 12.1862 220.361 12.1904C220.348 12.2254 220.326 12.2886 220.295 12.3556C220.264 12.423 220.214 12.5196 220.133 12.617C220.093 12.6644 220.059 12.7159 219.996 12.8121C219.984 12.8293 219.972 12.848 219.959 12.8683C219.884 12.9814 219.77 13.151 219.614 13.3066C219.603 13.318 219.592 13.3285 219.582 13.3384C219.556 13.3644 219.534 13.3862 219.51 13.411C219.482 13.4409 219.46 13.4652 219.443 13.4857L219.442 13.4905C219.436 13.5454 219.428 13.6236 219.417 13.7022C219.406 13.7801 219.389 13.8902 219.359 13.9971C219.344 14.0494 219.318 14.1292 219.275 14.2141C219.242 14.2788 219.142 14.4616 218.925 14.5855C218.732 14.6961 218.507 14.7379 218.348 14.749C218.257 14.7553 218.138 14.7553 218.01 14.7308C217.896 14.709 217.681 14.6501 217.496 14.4653C217.219 14.1878 217.178 13.8507 217.169 13.6841C217.165 13.5944 217.169 13.5122 217.171 13.462C217.172 13.4449 217.173 13.4313 217.173 13.4202C217.175 13.3895 217.175 13.378 217.175 13.3658C217.175 12.9426 217.208 12.5676 217.324 12.1638C217.135 12.4261 216.922 12.6561 216.768 12.8233L216.754 12.8379C216.701 12.8963 216.653 12.984 216.578 13.1973C216.57 13.2221 216.56 13.2508 216.55 13.2825C216.487 13.4695 216.389 13.7646 216.231 14.0231C216.019 14.3699 215.67 14.4698 215.501 14.5012C215.301 14.5385 215.1 14.5294 214.929 14.4986C214.761 14.4684 214.557 14.4058 214.371 14.2839C214.201 14.1717 213.895 13.8998 213.895 13.4387C213.895 13.1797 213.928 12.9535 213.961 12.7651C213.973 12.6997 213.983 12.6428 213.993 12.5905C214.014 12.4779 214.031 12.3866 214.044 12.2784C214.101 11.8226 214.261 11.4267 214.386 11.1252C214.394 11.1055 214.402 11.0862 214.41 11.0673C214.496 10.8589 214.563 10.6962 214.61 10.5436ZM218.993 6.70895C219.042 6.53608 219.084 6.36697 219.129 6.18799C219.173 6.01139 219.22 5.82519 219.277 5.6163C219.332 5.41641 219.392 5.22433 219.448 5.05005C219.456 5.02471 219.464 4.99973 219.471 4.97517C219.534 4.77571 219.59 4.59473 219.636 4.40737C219.696 4.16303 219.747 3.92364 219.793 3.6795C219.767 3.72318 219.736 3.77113 219.699 3.81787C219.694 3.83597 219.688 3.85957 219.679 3.89984L219.678 3.90312C219.668 3.94767 219.652 4.01588 219.63 4.08711C219.59 4.22058 219.563 4.34982 219.529 4.51574C219.523 4.54546 219.516 4.57636 219.509 4.60867C219.468 4.8062 219.413 5.051 219.316 5.3039C219.151 5.73244 219.066 6.19011 218.993 6.70895ZM216.431 9.93845C216.411 10.0316 216.393 10.1175 216.376 10.1974C216.32 10.4715 216.278 10.6749 216.206 10.8591C216.223 10.7966 216.238 10.733 216.251 10.6685C216.303 10.4068 216.36 10.1599 216.431 9.93845ZM210.326 9.89913C210.325 9.90013 210.325 9.9006 210.325 9.90059L210.326 9.89913Z" fill="#444444"/>
</svg>
